<svg width="50" height="50" viewBox="0 0 50 50" fill="none" xmlns="http://www.w3.org/2000/svg">
<g clip-path="url(#clip0_23_3650)">
<path d="M48.4081 9.84431C48.4081 9.54431 48.2889 9.25665 48.0768 9.04443C43.8277 4.79533 38.4595 2.07327 32.6372 1.14918C32.6059 1.14149 32.5743 1.13425 32.542 1.12916C32.512 1.12441 32.4824 1.12203 32.4526 1.11965C31.0455 0.905853 29.6126 0.795898 28.1627 0.795898C26.7087 0.795898 25.2718 0.906645 23.8609 1.12158C23.8178 1.1235 23.7743 1.12712 23.7307 1.13402C23.6861 1.14115 23.6428 1.15133 23.6003 1.16332C20.725 1.62904 17.9617 2.53323 15.3902 3.84443C15.3775 3.85031 15.3647 3.85506 15.3521 3.8614C15.3352 3.86999 15.3196 3.88017 15.3033 3.88945C12.7828 5.18583 10.4485 6.87293 8.37591 8.92011C8.32364 8.95698 8.2733 8.99771 8.22647 9.04443C8.17896 9.09183 8.13767 9.14307 8.10045 9.19612C6.05486 11.272 4.36957 13.6094 3.07591 16.133C3.06776 16.1474 3.05894 16.1609 3.05136 16.1758C3.04581 16.1866 3.04174 16.1978 3.03665 16.2088C1.72704 18.7831 0.825113 21.5494 0.36233 24.4276C0.350453 24.4699 0.340272 24.513 0.333258 24.5573C0.326357 24.6006 0.322738 24.6437 0.320814 24.6865C0.108937 26.0879 0 27.5147 0 28.9585C0 30.4182 0.111652 31.8607 0.328394 33.277C0.330769 33.3074 0.333371 33.3379 0.338235 33.3685C0.343891 33.4039 0.351131 33.4387 0.359842 33.4727C1.29005 39.2796 4.00939 44.6331 8.24876 48.8726C8.46968 49.0934 8.75916 49.2039 9.04864 49.2039C9.33812 49.2039 9.62772 49.0934 9.84853 48.8726L48.0769 10.6443C48.289 10.4321 48.4081 10.1444 48.4081 9.84431ZM28.1628 27.3587L26.245 25.4409C25.8033 24.9993 25.087 24.9993 24.6452 25.4409C24.2035 25.8827 24.2035 26.599 24.6452 27.0408L26.563 28.9585L9.06584 46.4556C7.7155 44.9833 6.56787 43.3908 5.62036 41.715L6.97443 41.025C7.53111 40.7413 7.75238 40.0602 7.46878 39.5035C7.18507 38.9467 6.50373 38.7257 5.94729 39.0091L4.59355 39.699C3.77738 37.9027 3.17805 36.0315 2.79287 34.1252L4.27873 33.8898C4.89581 33.7921 5.31674 33.2126 5.21912 32.5956C5.12127 31.9786 4.54219 31.5571 3.92489 31.6552L2.44118 31.8901C2.22149 29.9456 2.22002 27.9807 2.43891 26.0362L3.9198 26.2707C3.97975 26.2802 4.03937 26.2847 4.09819 26.2847C4.64491 26.2847 5.12579 25.8874 5.21414 25.3303C5.31188 24.7132 4.89084 24.1338 4.27376 24.0361L2.79061 23.8011C3.17489 21.8953 3.77466 20.025 4.58971 18.229L5.93315 18.9135C6.09762 18.9974 6.27296 19.0371 6.44581 19.0371C6.85769 19.0371 7.25486 18.8114 7.45464 18.4192C7.73824 17.8625 7.51686 17.1813 6.96018 16.8977L5.61346 16.2116C6.55962 14.5365 7.70781 12.9459 9.05633 11.474L10.1213 12.5388C10.3422 12.7596 10.6317 12.8701 10.9212 12.8701C11.2106 12.8701 11.5002 12.7596 11.721 12.5388C12.1628 12.097 12.1628 11.3807 11.721 10.9389L10.6552 9.87305C12.1132 8.53278 13.6989 7.37622 15.385 6.41694L16.0744 7.77011C16.2743 8.1623 16.6714 8.38798 17.0833 8.38798C17.256 8.38798 17.4314 8.34827 17.5958 8.26445C18.1525 7.98085 18.3739 7.29963 18.0903 6.74296L17.3997 5.38741C19.1769 4.57486 21.044 3.96649 22.9725 3.57633L23.2098 5.07441C23.2981 5.63153 23.779 6.02882 24.3258 6.02882C24.3846 6.02882 24.4442 6.02429 24.5042 6.01479C25.1213 5.91705 25.5422 5.33764 25.4446 4.72056L25.2078 3.22588C26.1821 3.11592 27.1682 3.05834 28.1631 3.05834C29.1402 3.05834 30.1088 3.11321 31.0659 3.21931L30.829 4.71569C30.7312 5.33278 31.1523 5.91219 31.7693 6.00993C31.8293 6.01943 31.8889 6.02395 31.9477 6.02395C32.4945 6.02395 32.9753 5.62667 33.0637 5.06954L33.3017 3.56649C35.2318 3.95303 37.1011 4.55676 38.8804 5.36603L38.1861 6.7287C37.9025 7.28538 38.1238 7.9666 38.6805 8.2502C38.845 8.33402 39.0204 8.37373 39.1931 8.37373C39.605 8.37373 40.0022 8.14805 40.2019 7.75585L40.8966 6.39228C42.5948 7.35404 44.1929 8.51366 45.6604 9.86117L28.1628 27.3587Z" fill="#01193D"/>
<path d="M35.6946 9.91851C33.292 8.97179 30.7579 8.4917 28.1627 8.4917C22.6875 8.4917 17.5455 10.6184 13.684 14.48C7.91668 20.2472 6.12618 28.8869 9.12244 36.4907C9.26226 36.8454 9.57131 37.1058 9.94462 37.1836C10.0212 37.1995 10.0982 37.2072 10.1749 37.2072C10.4719 37.2072 10.7606 37.0902 10.9748 36.8759L36.0797 11.7709C36.3494 11.5012 36.465 11.1139 36.3874 10.7407C36.3098 10.3675 36.0494 10.0582 35.6946 9.91851ZM10.6602 33.9909C8.84462 27.6602 10.5719 20.7918 15.2839 16.0798C18.718 12.6455 23.2919 10.7541 28.1628 10.7541C29.879 10.7541 31.565 10.9899 33.1947 11.4565L10.6602 33.9909Z" fill="#01193D"/>
<path d="M48.8687 46.9415H32.5484C32.3097 43.6481 31.0311 40.5611 28.871 38.0636L49.6686 17.2661C50.1104 16.8243 50.1104 16.108 49.6686 15.6662C49.2269 15.2246 48.5106 15.2246 48.0687 15.6662L26.5085 37.2265C26.5057 37.2292 26.5027 37.2316 26.4998 37.2343C26.4971 37.237 26.4947 37.2402 26.492 37.2429L16.4622 47.2727C16.1386 47.5963 16.0419 48.0828 16.217 48.5056C16.3921 48.9282 16.8046 49.2039 17.2622 49.2039H48.8687C49.4935 49.2039 50 48.6973 50 48.0726C50 47.448 49.4935 46.9415 48.8687 46.9415ZM27.2657 39.669C29.0049 41.7324 30.0489 44.2527 30.278 46.9415H19.9932L27.2657 39.669Z" fill="#01193D"/>
</g>
<defs>
<clipPath id="clip0_23_3650">
<rect width="50" height="50" fill="white"/>
</clipPath>
</defs>
</svg>
