<svg width="50" height="50" viewBox="0 0 50 50" fill="none" xmlns="http://www.w3.org/2000/svg">
<g clip-path="url(#clip0_23_3658)">
<path d="M48.9668 1.8945C48.922 1.69063 48.8204 1.49673 48.6619 1.33823C48.5034 1.17985 48.3095 1.07803 48.1056 1.03334C43.0339 -0.168903 37.8553 -0.322535 33.0143 0.574821C33.0122 0.575161 33.0101 0.575613 33.0081 0.575953C32.413 0.686482 31.8224 0.812849 31.2383 0.955055C27.1035 1.96147 23.2677 3.76942 19.9553 6.25366C19.9023 6.28726 19.852 6.32516 19.8054 6.3668C18.7335 7.18123 17.7169 8.06727 16.7641 9.02006C12.8371 12.9472 10.0482 17.9522 8.69912 23.4942C7.4454 28.644 7.42662 34.2543 8.63995 39.7601L0.331375 48.0686C-0.110402 48.5104 -0.110515 49.2268 0.331375 49.6686C0.552207 49.8895 0.841823 50 1.13133 50C1.42083 50 1.71044 49.8895 1.93128 49.6686L10.24 41.36C15.7458 42.5732 21.356 42.5544 26.5058 41.3009C32.0478 39.9518 37.053 37.163 40.98 33.2359C43.716 30.4998 45.8996 27.2405 47.4287 23.6409C47.4599 23.582 47.4862 23.52 47.5067 23.4554C48.1366 21.9453 48.6521 20.3762 49.045 18.7618C50.3444 13.4243 50.3172 7.59212 48.9668 1.8945ZM34.3501 2.65576C37.9525 2.09055 41.7463 2.13218 45.5815 2.81855L34.3501 14.0499V2.65576ZM18.3641 10.62C18.7105 10.2734 19.0649 9.93778 19.4277 9.61196V12.9089C19.4277 13.5337 19.9342 14.0403 20.559 14.0403C21.1838 14.0403 21.6903 13.5337 21.6903 12.9089V7.78738C24.7731 5.56006 28.3008 3.98063 32.0874 3.0964V16.3126L21.6903 26.7097V17.1498C21.6903 16.5251 21.1838 16.0185 20.559 16.0185C19.9342 16.0185 19.4277 16.5251 19.4277 17.1498V28.9723L10.5627 37.8372C8.7093 27.4796 11.5573 17.4268 18.3641 10.62ZM39.3801 31.6359C32.5733 38.4428 22.5206 41.2907 12.1627 39.4372L27.3575 24.2424H44.6536C43.3131 26.9724 41.547 29.469 39.3801 31.6359ZM45.6467 21.9798H29.6202L47.1815 4.41856C48.2854 10.5876 47.7216 16.6484 45.6467 21.9798Z" fill="#01193D"/>
</g>
<defs>
<clipPath id="clip0_23_3658">
<rect width="50" height="50" fill="white"/>
</clipPath>
</defs>
</svg>
